<?xml version="1.0" encoding="UTF-8"?><svg id="svg2" xmlns="http://www.w3.org/2000/svg" xmlns:xlink="http://www.w3.org/1999/xlink" viewBox="0 0 595.28 841.89"><defs><style>.cls-1,.cls-2,.cls-3,.cls-4,.cls-5,.cls-6{stroke:#000;stroke-linejoin:round;}.cls-1,.cls-2,.cls-4,.cls-5,.cls-6{stroke-width:2.4px;}.cls-2{fill:url(#linear-gradient);}.cls-3{stroke-width:2.28px;}.cls-4{fill:#f9f9f9;}.cls-5{fill:#f2f2f2;}.cls-6{fill:red;}</style><linearGradient id="linear-gradient" x1="-1558.74" y1="-16.52" x2="-1478.74" y2="-436.52" gradientTransform="translate(1507.72 200.68) scale(.8 -.8)" gradientUnits="userSpaceOnUse"><stop offset="0" stop-color="#fff"/><stop offset="1" stop-color="red" stop-opacity="0"/></linearGradient></defs><g id="layer1"><g id="g4498"><circle id="circle4500" class="cls-3" cx="297.64" cy="420.94" r="151.98"/><path id="path4502" class="cls-1" d="M297.71,261.03c-84.38,0-153.49,65.31-159.56,148.14h87.31c5.81-35.61,36.57-61.77,72.65-61.79,36.16,.05,66.93,26.34,72.62,62.05h.06v-.27h86.33c-6.94-72.15-75.65-148.14-159.41-148.14h0Z"/><path id="path4504" class="cls-1" d="M297.64,366.43c-30.11,0-54.51,24.41-54.51,54.51,0,30.11,24.4,54.51,54.51,54.51h0c30.11,0,54.51-24.41,54.51-54.51h0c0-30.11-24.41-54.51-54.51-54.51Zm0,34.79c10.89,0,19.72,8.83,19.72,19.72,0,10.89-8.83,19.72-19.72,19.72h0c-10.89,0-19.72-8.83-19.72-19.72,0-10.89,8.83-19.72,19.72-19.72Z"/><path id="path4506" class="cls-1" d="M137.72,425.37c2.39,86.28,73.08,155.5,159.93,155.5s157.14-81.25,159.91-155.5h-86.01c-2.38,38.84-34.57,69.13-73.49,69.14-38.89-.05-71.04-30.32-73.42-69.14h-86.92Z"/><path id="path4508" class="cls-1" d="M297.71,261.03c-84.38,0-153.49,65.31-159.56,148.14h87.31c5.81-35.61,36.57-61.77,72.65-61.79,36.16,.05,66.93,26.34,72.62,62.05h.06v-.27h86.33c-6.94-72.15-75.65-148.14-159.41-148.14h0Z"/></g><g id="g4491"><circle id="circle4275" class="cls-3" cx="297.64" cy="420.94" r="151.98"/><path id="path4277" class="cls-6" d="M297.71,261.03c-84.38,0-153.49,65.31-159.56,148.14h87.31c5.81-35.61,36.57-61.77,72.65-61.79,36.16,.05,66.93,26.34,72.62,62.05h.06v-.27h86.33c-6.94-72.15-75.65-148.14-159.41-148.14h0Z"/><path id="path4279" class="cls-5" d="M297.64,366.43c-30.11,0-54.51,24.41-54.51,54.51,0,30.11,24.4,54.51,54.51,54.51h0c30.11,0,54.51-24.41,54.51-54.51h0c0-30.11-24.41-54.51-54.51-54.51Zm0,34.79c10.89,0,19.72,8.83,19.72,19.72,0,10.89-8.83,19.72-19.72,19.72h0c-10.89,0-19.72-8.83-19.72-19.72,0-10.89,8.83-19.72,19.72-19.72Z"/><path id="path4281" class="cls-4" d="M137.72,425.37c2.39,86.28,73.08,155.5,159.93,155.5s157.14-81.25,159.91-155.5h-86.01c-2.38,38.84-34.57,69.13-73.49,69.14-38.89-.05-71.04-30.32-73.42-69.14h-86.92Z"/><path id="path4479" class="cls-2" d="M297.71,261.03c-84.38,0-153.49,65.31-159.56,148.14h87.31c5.81-35.61,36.57-61.77,72.65-61.79,36.16,.05,66.93,26.34,72.62,62.05h.06v-.27h86.33c-6.94-72.15-75.65-148.14-159.41-148.14h0Z"/></g></g></svg>