<?xml version="1.0" encoding="UTF-8"?><svg id="Layer_1" xmlns="http://www.w3.org/2000/svg" xmlns:xlink="http://www.w3.org/1999/xlink" viewBox="0 0 269.47 98.81"><defs><style>.cls-1{fill:url(#linear-gradient);}.cls-2{fill:#0071b9;}.cls-3{fill:#ffcb05;}.cls-4{fill:#7d7f68;}.cls-5{fill:#312370;}.cls-6{fill:#c7a008;}.cls-7{fill:#21386e;}.cls-8{fill:#1e2d5f;}.cls-9{fill:#1d2c5e;}.cls-10{fill:#3567b0;}.cls-11{fill:#3466af;}.cls-12{fill:#3c5aa6;}.cls-13{fill:url(#linear-gradient-8);}.cls-14{fill:url(#linear-gradient-9);}.cls-15{fill:url(#linear-gradient-3);}.cls-16{fill:url(#linear-gradient-4);}.cls-17{fill:url(#linear-gradient-2);}.cls-18{fill:url(#linear-gradient-6);}.cls-19{fill:url(#linear-gradient-7);}.cls-20{fill:url(#linear-gradient-5);}</style><linearGradient id="linear-gradient" x1="426.75" y1="-632.71" x2="416.73" y2="-614.04" gradientTransform="translate(-413.45 -579.19) scale(1 -1)" gradientUnits="userSpaceOnUse"><stop offset="0" stop-color="#0070b6"/><stop offset="1" stop-color="#1d2c5e"/></linearGradient><linearGradient id="linear-gradient-2" x1="548.93" y1="-594.57" x2="561.64" y2="-580.95" gradientTransform="translate(-413.45 -579.19) scale(1 -1)" gradientUnits="userSpaceOnUse"><stop offset="0" stop-color="#0070b6"/><stop offset="1" stop-color="#1d2c5e"/></linearGradient><linearGradient id="linear-gradient-3" x1="493.45" y1="-617.29" x2="491.94" y2="-604.55" gradientTransform="translate(-413.45 -579.19) scale(1 -1)" gradientUnits="userSpaceOnUse"><stop offset="0" stop-color="#0070b6"/><stop offset="1" stop-color="#1d2c5e"/></linearGradient><linearGradient id="linear-gradient-4" x1="632.35" y1="-614.83" x2="631.74" y2="-603.34" gradientTransform="translate(-413.45 -579.19) scale(1 -1)" gradientUnits="userSpaceOnUse"><stop offset="0" stop-color="#125d9e"/><stop offset="1" stop-color="#1d2c5e"/></linearGradient><linearGradient id="linear-gradient-5" x1="589.91" y1="-598.26" x2="576.57" y2="-619.49" gradientTransform="translate(-413.45 -579.19) scale(1 -1)" gradientUnits="userSpaceOnUse"><stop offset="0" stop-color="#125d9e"/><stop offset="1" stop-color="#1d2c5e"/></linearGradient><linearGradient id="linear-gradient-6" x1="471.82" y1="-632.31" x2="480.92" y2="-650.2" gradientTransform="translate(-413.45 -579.19) scale(1 -1)" gradientUnits="userSpaceOnUse"><stop offset="0" stop-color="#105fa1"/><stop offset="1" stop-color="#1d2c5e"/></linearGradient><linearGradient id="linear-gradient-7" x1="437.49" y1="-626.2" x2="448.02" y2="-650.61" gradientTransform="translate(-413.45 -579.19) scale(1 -1)" gradientUnits="userSpaceOnUse"><stop offset="0" stop-color="#105fa1"/><stop offset="1" stop-color="#1d2c5e"/></linearGradient><linearGradient id="linear-gradient-8" x1="639.71" y1="1482.77" x2="655.63" y2="1482.77" gradientTransform="translate(-569.45 -1426.69)" gradientUnits="userSpaceOnUse"><stop offset="0" stop-color="#3c5aa6"/><stop offset=".93" stop-color="#2b73b9"/><stop offset="1" stop-color="#2a75bb"/></linearGradient><linearGradient id="linear-gradient-9" x1="573.18" y1="1474.57" x2="838.92" y2="1474.57" gradientTransform="translate(-569.45 -1426.69)" gradientUnits="userSpaceOnUse"><stop offset="0" stop-color="#3c5aa6"/><stop offset=".93" stop-color="#2b73b9"/><stop offset="1" stop-color="#2a75bb"/></linearGradient></defs><polygon class="cls-1" points="0 36.56 12.03 56.86 16.83 52.28 3.74 32.76 0 36.56"/><polygon class="cls-2" points="178.56 20.6 178.09 23.28 183.85 21.42 183.13 18.14 178.56 20.6"/><polygon class="cls-17" points="145.05 2.33 126.54 23.55 131.92 22 149.54 0 145.05 2.33"/><polygon class="cls-9" points="244.06 31.34 248.6 28.92 247.3 40.3 244.06 31.34"/><polygon class="cls-9" points="215.82 38.64 219.86 39.47 225.01 36.97 220.54 35.3 215.82 38.64"/><polygon class="cls-15" points="76.6 26.56 77.24 39.74 82.88 37.47 81.19 24.1 76.6 26.56"/><polygon class="cls-16" points="220.19 22.63 215.65 25.07 215.82 38.64 220.39 36.3 221.82 29.73 220.19 22.63"/><polygon class="cls-5" points="219.57 39.51 214.57 83.87 222.56 82.3 224.12 37.11 219.57 39.51"/><polygon class="cls-7" points="229.35 86 229.49 92.02 244.82 96.9 249.38 94.49 234.34 82.83 219.1 81.5 214.57 83.87 229.35 86"/><polygon class="cls-7" points="172.48 75.42 176.25 73.39 178.65 77.83 182.2 75.87 182.91 81.72 205.19 85.68 209.65 83.23 178.92 64.5 157.12 68.24 152.87 72.28 172.48 75.42"/><polygon class="cls-20" points="165.39 20.83 160.93 23.28 152.87 72.28 157.38 69.94 165.12 42.42 165.39 20.83"/><polygon class="cls-9" points="129.79 27.39 126.24 29.29 126.53 30.47 134.99 25.1 131.3 21.13 126.54 23.55 129.79 27.39"/><polygon class="cls-7" points="139.51 85.27 103.17 67.27 107.73 63.82 144.03 82.83 139.51 85.27"/><polygon class="cls-9" points="106.58 18.28 101.07 28.72 106.89 26.96 111.09 15.83 106.58 18.28"/><path class="cls-18" d="M56.63,61.42l-4.65,3.19s.99,5.18,2.26,8.79c1.28,3.62,4.32,6.53,4.32,6.53,1.95,1.91,4.35,3.3,7.02,4.08,5.14,1.48,10.94,.51,15.92-2.66,1.3-.82,3.07-2.14,4.15-3.18-4.89,2.97-29.03-16.74-29.02-16.74Z"/><polygon class="cls-9" points="81.5 38.67 85.74 85.44 103.06 82.88 107.7 80.45 86.2 35.86 81.77 37.36 77.24 39.74 81.5 38.67"/><polygon class="cls-19" points="16.55 54.92 35.91 98.81 54.29 92.88 58.78 89.86 20.62 49.93 15.84 52.79 12.03 56.86 16.55 54.92"/><path class="cls-9" d="M208.38,75.63l.26,2.15c1.58-.18,3.25-.38,4.67-.89,1.66-.57,5.27-2.17,6.64-3.36-.51,.19-8.96,2.38-11.57,2.09"/><path class="cls-9" d="M143.32,64.42l.69,3.47c3.72-.55,6.92-1.93,10.06-3.82,1.97-1.17,4.13-2.94,4.82-3.42-.48,.31-15.57,3.77-15.57,3.77Z"/><path class="cls-3" d="M40.94,94.65l-1.44-3.19L21.15,50.5l-.38-.84-.83,.38-.56,.26-3.27,1.6c-.48-.81-1.28-2.16-1.84-3.1l-7.39-12.48-1.93-3.26,3.2-2.03c3.02-1.93,6.44-3.71,10.15-5.3,7.4-3.15,14.94-4.82,21.83-4.82,2.26,0,4.46,.18,6.51,.54,3.43,.39,6.6,1.52,9.22,3.26,3.91,2.18,6.98,5.57,8.72,9.58,1.43,3.29,1.7,7.15,.8,11.15l-.53,2.35,1.95-1.42c1.32-.96,2.75-1.77,4.25-2.43,2.6-1.1,5.29-1.66,7.99-1.66,2.55,0,4.96,.51,7.17,1.5l1.42,.64-.14-1.55-.62-6.71-.1-1.06-1.04,.27-3.11,.81-.54-11.43,22.77-7.28-.18,8.88,1.71,.44,4.97-9.53,14.9,13.21,.62,.55,.61-.57c2.04-1.92,4.46-3.46,7.19-4.57l1.14-.47-.78-.95-2.69-3.27L149.45,1.5l8.96,13.36-13.71,7.37-3.04,1.64,3.46,.07c6.5,.14,12.26,2.89,16.21,7.74l1.43,1.76,.92,1.13-1.53,1.62-1.02,1.08-3.43,3.65-.64,.68,.69,.62,3.21,2.89,1.24,1.12,.27-1.65,1.23-7.63,.32-1.96h0s.32-1.99,.32-1.99l1.84-11.26h17.19l.13-.76,.32-1.93h14.79l3.58,22.62,.23,1.47,1.2-.87c1.45-1.05,3.05-1.92,4.77-2.58,2.28-.86,4.62-1.3,6.97-1.3,2.79,0,5.49,.64,7.84,1.86,.06,.04,.15,.1,.27,.15l1.11,.45,.13-1.19,.27-2.47,.09-.81-.79-.18-3-.67-.15-11.79,22.86,5.03,1.72,8.48,1.77,.03,1.77-7.3,19.06,4.64-19.48,58.7-13.94-4.38-.1-5.41v-.78s-.78-.11-.78-.11l-13.91-1.96,.79-7.07,.19-1.68-1.51,.77c-.71,.36-1.4,.67-2.05,.91-2.27,.86-4.6,1.29-6.92,1.29-.67,0-1.35-.04-2-.11l-1.19-.13,.19,1.18,.98,6.22-20.29-3.58-1.06-9.23-.34-2.96-1.37,2.64-2.34,4.5-4.3-7.94-1.29-2.39-.41,2.68-.94,6.15-17.78-2.8,1.38-8.44,.32-1.93-1.68,1.01c-2.91,1.74-6.25,3.06-10.22,4.02-1.38,.34-2.83,.57-4.3,.69l-.83,.07v16.75l-35.02-17.31-1.32-.65v1.47s.03,14.8,.03,14.8l-15.66,2.31-.66-7.11-.18-1.9-1.36,1.34c-2.07,2.03-4.4,3.6-6.93,4.67-2.58,1.1-5.25,1.65-7.93,1.65s-5.18-.56-7.46-1.65c-4.22-2.03-7.26-5.71-8.57-10.36-.62-2.18-.79-4.49-.5-6.85l.31-2.52-1.84,1.75c-1.3,1.23-2.69,2.4-4.15,3.48l-.49,.36,.16,.6,5.28,20.25,.93,3.59-3.53,1.12-9.93,3.18-3.32,1.07h0Zm4.46-54.36c-.51,0-1.04,.05-1.57,.14l-.68,.13-1,.19,.3,.97,.2,.63,2.84,9.29,.28,.89,.42,1.34,1.05-.93,.7-.62c2.75-2.47,3.72-4.99,3.14-8.15-.37-1.9-1.84-2.85-2.68-3.24-.88-.43-1.9-.64-2.99-.64h0Zm76.14,.3l-1.78,1.73-4.68,4.54-1.02,.99,1.32,.51,5.01,1.94,1.54,.59-.32-1.62c-.41-2.09-.52-4.18-.33-6.22,0,0,.24-2.47,.24-2.47Zm20.42-5.17c-1.94,0-3.82,.83-5.15,2.29-2.02,2.21-2.41,5.47-.98,8.1l.38,.72,.61,1.14,.86-.97,.55-.62,6.86-7.83,.54-.62,.87-.99-1.23-.46-.77-.28c-.81-.32-1.67-.48-2.55-.48h0Z"/><path class="cls-4" d="M152.44,47.03c-.07,.06-.13,.13-.18,.21,.07-.06,.14-.12,.21-.18l-.03-.03Z"/><polygon class="cls-4" points="158.35 41.56 161.78 37.9 160.61 39.15 160.64 38.99 159.6 40.08 156.18 43.72 159.39 46.61 159.97 43.02 161.56 44.45 158.35 41.56"/><polygon class="cls-4" points="158.35 41.56 161.56 44.45 162.79 36.82 161.78 37.9 158.35 41.56"/><path class="cls-4" d="M115.72,47.52l.05,.02-.05-.02Z"/><path class="cls-6" d="M134.68,50.69c.27,.28,.02,.08,.33,.29l2.1-1.48c-.31-.22-.62-.46-.9-.72-3.04-2.77-2.25-9-.28-12.41-5.19,4.19-4.92,10.63-1.24,14.32"/><path class="cls-6" d="M159.97,54.18c-3.46,2.86-7.4,4.73-12.62,5.99-1.14,.26-2.26,.45-3.35,.55-8.27,.81-15.21-2.99-17.84-9.15-.33-.75-.58-1.5-.77-2.31-1.22-5.19-.18-9.82,2.39-13.46,.25-.35,.52-.69,.8-1.03-.13,.11-.26,.21-.37,.31-.99,.88-1.86,1.84-2.6,2.89-2.57,3.63-3.61,8.27-2.38,13.45,.19,.81,.44,1.57,.76,2.3,2.63,6.17,9.57,9.97,17.84,9.16,1.1-.11,2.21-.29,3.35-.56,5.22-1.26,9.16-3.12,12.62-5.98,.85-.69,1.66-1.45,2.45-2.28l-.07-.07c-.08,.07-.14,.13-.21,.18"/><polygon class="cls-6" points="101.68 38.5 110.92 25.51 110.55 25.17 101.63 37.69 101.68 38.5"/><polygon class="cls-6" points="162.79 36.82 161.56 44.45 159.97 43.02 159.39 46.61 156.18 43.72 159.6 40.08 160.64 38.99 160.61 39.15 161.78 37.9 162.79 36.82"/><polygon class="cls-6" points="151.37 15.43 154.61 14.04 148.7 6.45 146.76 9.16 151.37 15.43"/><path class="cls-6" d="M61.78,34.24c-14.94-18.19-41.85-8.42-51.52,.1l.38,.65c2.22-1.28,4.57-2.43,7.04-3.47,9.61-4.1,18.77-5.31,26.11-4.02,2.6,.3,5.35,1.07,7.74,2.67,3.31,1.86,5.82,4.49,7.29,7.88,2.6,5.99,.31,13.95-5.83,20.62,7.69-7.06,12.96-13.82,8.79-24.43Z"/><path class="cls-6" d="M92.26,55.43c-.07-.33-.14-.67-.25-.99-.84-3.03-2.65-5.44-5.02-7.05-3.83-2.6-9.19-3.14-14.52-.89-2.81,1.21-5.25,3.08-7.18,5.31,1.48-1.28,3.18-2.34,5.01-3.13,5.32-2.26,10.67-1.72,14.52,.88,2.37,1.61,4.16,4.02,5.02,7.04,.1,.32,.17,.66,.24,1.01,.23,1.15,.33,2.31,.29,3.5-.11,3.48-1.4,6.99-3.55,9.98-.35,.47-.71,.92-1.09,1.35,1.22-1.06,2.31-2.22,3.25-3.53,2.16-2.97,3.44-6.49,3.56-9.99,.05-1.17-.05-2.35-.29-3.5"/><path class="cls-6" d="M77.55,50.99s2.17-2.17,2.14-2.17c-2.74-.1-3.89,2.48-3.99,2.68,.56-.27,1.18-.45,1.85-.51"/><path class="cls-6" d="M82.71,54.15c.11,.37,.17,.74,.17,1.14,0,.57-.13,1.12-.36,1.62,.44-.23,3.6-1.76,2.38-5.02,.07,.1-2.27,2.24-2.19,2.25"/><path class="cls-6" d="M70.25,55.96c0-1.34,2.29-4.58,3-5.67-3.62,2.3-5.18,5.4-5.18,7.85,0,4.19,3.68,7.56,8.08,7.56,2.08,0,5.89-1.1,8.39-5.14-1.31,.86-4.63,2.92-6.37,2.92-4.4,0-7.93-3.31-7.93-7.52"/><polygon class="cls-6" points="101.23 59.79 101.29 76.75 103.98 76.9 103.44 57.57 101.23 59.79"/><polygon class="cls-6" points="85.78 27.51 85.84 29.02 98.59 25.22 99.53 41.46 101.66 38.48 101.21 22.18 85.78 27.51"/><polygon class="cls-6" points="124.33 33.33 112.35 22.33 110.92 25.51 121.46 35.42 124.33 33.33"/><path class="cls-6" d="M122.51,53.81l-14.06-4.65-2.05,2.16,14.01,5.61c1.59,2.99,4,5.56,7.03,7.43,2.93,1.79,6.29,2.87,9.84,3.21v6.92l2.17,1.08,.69-10.4-17.63-11.37h0Z"/><path class="cls-6" d="M145.1,51.86c3.45-.83,5.45-2.63,7.16-4.62-1.29,1.06-7.74,2.46-8.82,2.83l-2.12,2.26c.97,.09,2.6-.18,3.79-.47"/><path class="cls-6" d="M138.81,27.94c-6.37,.83-9.69,6.18-10.24,6.83,2.35-1.99,5.3-3.46,8.62-4.25,7.88-1.91,14.83,.5,19.12,5.81l2.66-2.25c-4.25-5.22-12.29-8.04-20.17-6.14"/><path class="cls-6" d="M160.17,54c.77-.65,2.13-1.3,2.86-2.06l-8.53-7.62c-.65,.78-1.24,2.07-2.04,2.74l7.71,6.94h0Z"/><path class="cls-6" d="M203.94,74.42c-8.95-7.35-8.41-23.12-4.02-28.13l-3.94-24.72-8.62,1.11-.38,2.18h6.52l3.46,22.42c-4.4,5.02-6.52,11.74-5.05,17.9,1.14,4.76,4.06,8.61,8.26,10.83,.42,.23,.86,.43,1.31,.62l.06,.33,2.57,.4s.27-2.75-.15-2.96h0Z"/><polygon class="cls-6" points="169.55 25.21 169.18 27.39 179.01 27.39 181.91 43.27 184.09 41.07 181.8 24.3 169.55 25.21"/><polygon class="cls-6" points="186.39 56.04 183.21 64.25 184 66.38 188.54 53.89 186.39 56.04"/><polygon class="cls-6" points="176.96 50.88 174.77 53.06 172.43 67.87 174.67 68.73 176.96 50.88"/><path class="cls-6" d="M221.12,46.15c1.29,.92,2.38,2.08,3.21,3.47,.65,1.06,1.15,2.25,1.46,3.55,1.07,4.45-.21,9.27-3.04,13.13-.29,.39-.6,.77-.9,1.14,1.15-.99,15.12-11.29,1.47-24.82-15.01-4.95-20.69,4.85-21.22,5.47,1.59-1.35,3.42-2.46,5.4-3.22,5.08-1.92,10.08-1.26,13.62,1.28"/><path class="cls-6" d="M213.56,47.12c.04,.1,2.15-2.2,2.2-2.2-2.67,.11-3.95,1.4-3.82,1.99-.16,.23-.29,.46-.39,.71,.57-.28,1.62-.5,2.02-.51"/><path class="cls-6" d="M218.58,50.48c.1,.36,.14,.73,.13,1.14-.02,.52-.16,.99-.35,1.43,.41-.18,3.64-1.19,2.41-4.75,.03,.1-2.22,2.19-2.19,2.18"/><path class="cls-6" d="M211.49,61.79c3.02,.13,6.36-1.73,8.76-5.01-6.15,1.26-12.61-8.98-11.96-9.98-2.32,1.68-4.38,4.93-4.47,7.2-.16,4.21,3.27,7.61,7.68,7.78"/><polygon class="cls-6" points="245.18 88.46 246.62 89.43 264.21 36.64 251.05 33.6 250.88 36.69 261.5 39.05 245.18 88.46"/><polygon class="cls-6" points="224.29 27.94 224.41 30.89 238.4 33.7 243.79 59.26 245.97 57.06 240.84 31.24 224.29 27.94"/><polygon class="cls-6" points="235.06 57.06 231.21 78.85 233.43 79.57 237.25 54.92 235.06 57.06"/><polygon class="cls-6" points="53.44 86.85 46.9 63.12 44.5 64.79 50.57 87.53 53.44 86.85"/><path class="cls-6" d="M51.75,51.16c-1.51,1.6-4.86,4.72-6.76,5.94l-1.16-3.72-2.54-8.15-1.61-5.52-1.57,2.02,1.61,5.53,2.54,8.15,1.15,3.73c2.61-1.68,6.41-4.84,8.35-7.97"/><path class="cls-4" d="M144.5,37.13c-2.07-.79-4.99-.56-6.57,1.17-.37,.4-1.08,1.42-1.31,1.88,1.53-1.22,4.25-1.48,6.04-.83l1.84-2.22h0Z"/><path class="cls-4" d="M49.86,44.49c-.23-1.22-1.43-2.19-2.01-2.46-1.05-.51-2.86-.58-4.19-.34,.24,.82,.51,1.79,.63,2.18,.54,.08,1.42,.24,1.88,.45,.58,.28,1.6,.94,1.83,2.17,.32,1.64,.23,3.17-.45,4.42,1.87-1.84,2.78-3.84,2.31-6.41"/><path class="cls-12" d="M53.14,44.46c-.9-4.82-7.21-7.48-13.46-4.07l1.61,5.52,2.54,8.16,1.16,3.72c4.69-3.02,9.41-6.64,8.16-13.32Zm-6.21,7.42c-.68-2.23-2.18-7.04-2.18-7.04,0,.02-.29-1.03-.65-2.23,1.33-.24,2.6-.14,3.65,.36,.59,.28,1.62,.93,1.84,2.16,.52,2.77-.42,4.75-2.65,6.75Z"/><path class="cls-10" d="M147.77,36.81c-3.5-3.21-8.93-2.96-12.12,.53-3.21,3.49-2.96,8.92,.54,12.12,.29,.28,.59,.5,.9,.72l11.28-12.77c-.2-.21-.4-.42-.61-.6h0Zm-10.65,8.98c-1.1-2.03-.88-4.6,.77-6.4,1.59-1.73,4.02-2.22,6.09-1.42l-6.86,7.82Z"/><polygon class="cls-8" points="162.84 35.4 156.6 41.42 162.53 46.75 162.84 35.4"/><path class="cls-11" d="M220.75,48.29c.1,.38,.14,.75,.13,1.15-.1,2.39-2.35,4.23-5.02,4.1-2.67-.09-4.77-2.12-4.67-4.5,.09-2.23,2.08-4,4.53-4.11-.47-.1-.95-.16-1.46-.18-4.47-.19-8.13,2.97-8.28,6.92-.17,4.22,3.21,7.66,7.61,7.85,4.48,.18,8.13-3,8.31-7.2,.05-1.46-.38-2.85-1.16-4.04"/><path class="cls-13" d="M85.05,53.11c0,2.4-2.18,4.32-4.85,4.32s-4.85-1.92-4.85-4.32c0-2.23,1.91-4.07,4.36-4.29-.47-.08-.96-.13-1.46-.13-4.47,0-8,3.32-8,7.27,0,4.22,3.53,7.52,7.93,7.52s8-3.31,8-7.52c0-1.46-.48-2.83-1.31-3.97,.11,.34,.18,.72,.18,1.12"/><path class="cls-14" d="M248.57,28.91l-1.99,8.19-1.83-9.06-24.56-5.41,.17,13.66,3.7,.83-.27,2.46s-.08-.05-.1-.07c-4.59-2.42-10.28-2.67-15.63-.65-1.8,.69-3.46,1.59-4.98,2.69l-3.71-23.39h-16.33l-.45,2.69h-17.19l-1.96,12.02-1.43-1.76c-4.17-5.12-10.21-7.94-16.9-8.08l14.6-7.84L149.54,0l-18.39,21.19,3.17,3.87c-2.88,1.17-5.39,2.8-7.47,4.75l-15.77-13.99-5.51,10.57,.21-10.15-24.65,7.88,.63,13.24,4.19-1.09,.62,6.71c-4.79-2.15-10.55-2.1-15.89,.16-1.58,.69-3.06,1.54-4.42,2.52,.92-4.09,.71-8.12-.85-11.72-1.84-4.25-5.08-7.76-9.05-9.97-2.78-1.85-6.1-3.01-9.57-3.4-8.53-1.49-18.77,.04-28.85,4.33-3.71,1.58-7.16,3.38-10.28,5.36l-3.94,2.5,2.38,4.02,7.39,12.48s2.26,3.83,2.27,3.82l3.99-1.96,.56-.26,18.35,40.96,1.77,3.94,4.1-1.32,9.93-3.18,4.35-1.38-1.15-4.43-5.27-20.25c1.52-1.12,2.93-2.31,4.24-3.56-.29,2.42-.14,4.87,.53,7.21,1.38,4.91,4.59,8.78,9.05,10.93,4.82,2.32,10.69,2.32,16.13,.01,2.73-1.16,5.15-2.85,7.21-4.85l.75,8.06,17.39-2.56-.03-15.59,36.34,17.96v-17.39c1.46-.12,2.95-.35,4.44-.72,4-.97,7.43-2.29,10.47-4.12l-1.53,9.34,19.59,3.08,1.07-7.05,5.12,9.45,3.13-6.03,1.14,9.9,22.21,3.92-1.18-7.47c3.04,.34,6.25-.06,9.34-1.23,.73-.27,1.46-.6,2.15-.96l-.88,7.95,14.78,2.09,.11,6.06,15.42,4.84,20.07-60.49-20.9-5.08h0Zm-86.79,8.99l1.02-1.08-1.23,7.63-3.21-2.89,3.42-3.65Zm-13.02-31.16l5.38,7.31-15.39,7.63-1.06-1.61s11.07-13.32,11.07-13.32ZM46.87,63.12l6.14,23.56-9.94,3.17L22.68,44.32c-1.11,.58-3.16,1.56-5.04,2.48l-7.38-12.47c2.94-1.88,6.16-3.54,9.58-4.98,9.61-4.09,18.78-5.31,26.12-4.01,2.6,.29,5.34,1.06,7.75,2.65,3.3,1.86,5.83,4.51,7.28,7.88,3.55,8.21-2.38,20.01-14.12,27.26Zm45.68-4.19c-.11,3.51-1.4,7.02-3.56,9.99-2.05,2.88-4.92,5.25-8.29,6.7-8.62,3.65-17.24,0-19.54-8.18-2.23-7.91,2.96-17.33,11.31-20.93,5.33-2.25,10.69-1.72,14.52,.89,2.37,1.61,4.17,4.02,5.02,7.05,.11,.32,.18,.66,.25,.99,.24,1.15,.34,2.33,.29,3.5Zm46.9,16.65l-36.06-18.03,.06,18.89-9.33,1.27-.65-7.79c2.88-4.94,3.93-10.76,2.43-16.09-.82-2.93-2.35-5.48-4.42-7.52l-1.34-15.88-4.19,1.09-.18-4.01,14.98-4.46,.92,15.45,11.03-15.5,10.79,10.27-15.08,15.89,14.17,5.61c1.58,3,4,5.55,7.03,7.43,2.93,1.81,6.29,2.88,9.84,3.23v10.16s0,0,0,0Zm-18.72-26.13l-5.01-1.94,4.68-4.54c-.2,2.09-.1,4.27,.34,6.48Zm39.24,4.72c-3.46,2.86-7.4,4.73-12.62,5.99-1.14,.26-2.26,.45-3.35,.55-8.27,.81-15.21-2.99-17.84-9.15-.33-.75-.58-1.5-.77-2.31-1.22-5.19-.18-9.83,2.38-13.46,.74-1.06,1.61-2.03,2.6-2.9,2.41-2.15,5.5-3.72,9-4.56,7.88-1.9,14.82,.5,19.07,5.72l-15.01,15.98c1.02,.19,2.64-.08,3.83-.36,3.58-.87,5.58-2.77,7.34-4.84l6,5.4,1.82,1.64c-.79,.81-1.62,1.58-2.45,2.29h0Zm31.85,21.33l-3.27-21.64-4.62,11.93-6.92-14.92h-.08l-2.73,17.28-11.53-2.01,1.62-9.64c.43-.41,.86-.82,1.28-1.25l3.74-3.85-3.63-3.25,3.86-22.96h11.63l2.91,15.89,3.26-18.42h8.32l3.45,22.44c-4.39,5-6.53,11.73-5.06,17.88,1.13,4.77,4.07,8.61,8.27,10.86,.42,.21,.86,.42,1.31,.61l.44,2.91-12.27-1.87h0Zm28.73-7.05c-1.27,.9-2.67,1.67-4.17,2.23-2.97,1.13-5.92,1.37-8.55,.84-1.83-.36-3.51-1.08-4.96-2.11-2.31-1.67-4.02-4.15-4.77-7.25-.88-3.73-.07-7.71,1.94-11.2,1-1.71,2.28-3.31,3.8-4.69,1.69-1.52,3.66-2.76,5.84-3.6,5.08-1.9,10.1-1.24,13.62,1.29,1.3,.92,2.38,2.09,3.22,3.45,.64,1.08,1.14,2.26,1.45,3.55,1.08,4.48-.21,9.27-3.03,13.14-1.21,1.65-2.68,3.13-4.39,4.34Zm25.96,20.39l-8.52-2.54-.74-31.43-4.29,24.24-9.3-1.48,.67-6.98c6.07-5.13,9.29-13.22,7.53-20.56-.77-3.25-2.45-6.08-4.8-8.23l.79-8.23-3.52-.94,.24-4.4,16.02,3.22,5.39,25.55,5.52-22.9,12.19,2.69-17.17,51.98h0Z"/><g><path d="M253.5,91.83v-2.37h-.89v-.32h2.13v.32h-.89v2.37h-.36Z"/><path d="M255.1,91.83v-2.69h.54l.64,1.9c.06,.18,.1,.31,.13,.4,.03-.1,.08-.24,.14-.43l.64-1.87h.48v2.69h-.34v-2.25l-.78,2.25h-.32l-.78-2.29v2.29h-.34Z"/></g></svg>