<?xml version="1.0" encoding="UTF-8"?><svg id="Capa_1" xmlns="http://www.w3.org/2000/svg" viewBox="0 0 255.1 255.1"><defs><style>.cls-1{fill:#fefefe;}.cls-2{fill:#ff9741;}</style></defs><circle class="cls-2" cx="127.6" cy="127.6" r="121.6"/><path class="cls-1" d="M182.54,185.55c-.03,.89-.63,1.49-1.08,2.17-7.37,10.86-17.31,18.16-30,21.63-8.58,2.35-17.31,3.99-26.23,3.35-22.54-1.62-41.21-10.57-54.17-29.67-6.34-9.35-9.46-19.89-10.29-31.12-1.13-15.26,2.1-29.77,7.63-43.88,.57-1.44,1.16-2.88,1.78-4.3,.16-.37,.23-1.02,.84-.85,.36,.1,.27,.61,.28,.96,0,.91-.01,1.83,0,2.74,.04,10.91,1,21.71,4.28,32.19,1.09,3.49,2.39,6.9,3.95,10.21,.18,.39,.36,.94,.92,.76,.16-.05,.22-.67,.18-1.01-.55-4.54-.75-9.1-.85-13.67-.4-17.76,4.12-33.81,16.68-46.96,3.46-3.63,7.09-7.11,11.19-10.06,3.26-2.35,6.33-4.94,9.1-7.88,5.25-5.57,7.84-12.21,8.19-19.8,.21-4.69-.4-9.29-1.28-13.88-.1-.54-.21-1.07-.28-1.62-.02-.17,.06-.49,.12-.49,.24-.03,.5,0,.73,.09,.16,.06,.28,.22,.42,.35,6.85,6.39,13.05,13.3,17.37,21.71,3.85,7.49,5.48,15.44,4.84,23.85-.2,2.68-.18,2.71-2.85,3.51-7.9,2.37-13.45,10.11-13.09,18.79,.34,8.07,5.78,15.17,13.6,17.29,9.86,2.68,19.91-3.36,22.59-13.54,1.13-4.28,.72-8.51-.29-12.73-.57-2.4-1.35-4.74-2.21-7.05-.18-.48-.69-1.11-.15-1.48,.46-.31,1,.24,1.46,.51,10.66,6.33,19.12,14.78,23.86,26.34,8.27,20.2,6.12,39.44-6.9,57-8.47,11.43-20.22,17.04-34.56,16.85-1.73-.02-3.46-.28-5.18-.45-.44-.04-1.01-.02-1.2-.5-.21-.53,.34-.75,.67-1.02,.56-.46,1.17-.88,1.71-1.37,7.65-7.02,10.56-15.73,8.26-25.79-2.26-9.88-8.51-16.43-18.38-19.11-12.83-3.49-26.35,4.49-30.06,17.68-2.66,9.45-.48,17.98,5.72,25.37,7.58,9.04,17.47,13.84,29.21,14.93,11.36,1.06,22.16-1.32,32.67-5.36,3.66-1.41,7.19-3.14,10.78-4.73l.04,.04Z"/></svg>