<?xml version="1.0" encoding="UTF-8"?><svg id="Capa_1" xmlns="http://www.w3.org/2000/svg" viewBox="0 0 255.1 255.1"><defs><style>.cls-1{fill:#fefefe;}.cls-2{fill:#38bf4b;}</style></defs><circle class="cls-2" cx="127.6" cy="127.6" r="121.6"/><path class="cls-1" d="M136.31,163.72h-18.96c-.59,0-1.18,0-1.77,0-.74-.01-1.2-.21-.68-1.04,.27-.43,.53-.86,.8-1.29,5.25-8.44,10.53-16.86,15.74-25.32,.85-1.39,1.78-2.13,3.53-2.32,10.38-1.07,20.75-2.31,31.13-3.5,.58-.07,1.18-.14,1.73-.32,1.27-.42,1.98-1.32,1.96-2.34-.02-1.01-.76-1.96-1.99-2.34-.8-.25-1.64-.39-2.47-.49-7.27-.88-14.55-1.75-21.82-2.62-3.72-.44-2.94-.63-1.52-2.9,6.97-11.14,13.95-22.27,20.92-33.41,.49-.79,.96-1.58,1.41-2.39,.37-.67,.6-1.4,.57-2.18-.09-1.92-1.65-2.84-3.36-1.96-1.07,.55-1.86,1.44-2.67,2.3-9.07,9.62-18.15,19.24-27.23,28.86-2.57,2.73-2.25,2.65-3.59-.72-2.63-6.65-5.25-13.32-7.88-19.97-.31-.78-.62-1.57-1.05-2.29-.74-1.24-1.93-1.82-2.91-1.55-1,.28-1.72,1.4-1.72,2.81,0,.59,.1,1.18,.18,1.76,1.45,10.08,2.89,20.17,4.38,30.25,.28,1.87-.07,3.29-1.48,4.74-6.81,7.01-13.48,14.15-20.2,21.24-.35,.37-.68,.75-1.05,1.1-.94,.9-1.07,.9-1.41-.37-1.83-6.83-3.64-13.67-5.43-20.51-1.62-6.19-3.21-12.39-4.81-18.58-.3-1.15-.61-2.28-1.57-3.1-1.45-1.24-3.14-.84-3.87,.93-.37,.89-.26,1.82-.17,2.74,.62,6.45,1.25,12.91,1.86,19.36,.75,7.88,1.5,15.76,2.24,23.64,.23,2.43,.39,4.87,.68,7.29,.13,1.1-.11,1.91-.89,2.72-4.84,5.05-9.62,10.15-14.44,15.21-1.24,1.31-1.31,1.3-2.49-.06-6.99-8.03-11.81-17.23-14.19-27.58-4.64-20.15-1.56-38.99,10.19-56.18,5.26-7.7,12.16-13.64,20.13-18.49,14.12-8.59,29.4-14.09,45.39-17.89,12.22-2.9,24.55-5.19,37.06-6.3,6.8-.6,13.62-.86,20.45-.76,1.87,.03,1.9,.04,2.38,1.87,1.81,6.84,3.32,13.75,4.43,20.74,2.64,16.6,3.55,33.32,3.1,50.11-.28,10.29-1.14,20.52-3.97,30.48-2.58,9.07-6.52,17.55-11.92,25.24-8.76,12.49-20.86,20.46-35.49,24.42-16.44,4.45-32.53,3.12-48.07-3.97-.54-.24-1.06-.51-1.58-.78-.46-.24-.51-.64-.29-1.06,.23-.45,.51-.87,.78-1.3,3.33-5.36,6.71-10.71,9.98-16.11,.82-1.35,1.79-1.96,3.37-2.2,11.82-1.78,23.62-3.67,35.43-5.53,4.41-.69,8.82-1.39,13.22-2.1,.83-.13,1.67-.29,2.45-.6,1.24-.48,2-1.63,1.91-2.71-.11-1.25-.94-1.91-2.01-2.36-.96-.41-1.98-.35-2.99-.35-6.49,0-12.97,0-19.46,0,0,0,0,.01,0,.03Z"/></svg>